<svg width="18" height="18" viewBox="0 0 18 18" fill="none" xmlns="http://www.w3.org/2000/svg">
<path fill-rule="evenodd" clip-rule="evenodd" d="M8.99199 0.666626C4.39199 0.666626 0.666992 4.39996 0.666992 8.99996C0.666992 13.6 4.39199 17.3333 8.99199 17.3333C13.6003 17.3333 17.3337 13.6 17.3337 8.99996C17.3337 4.39996 13.6003 0.666626 8.99199 0.666626ZM9.00049 15.6666C5.31715 15.6666 2.33382 12.6833 2.33382 8.99996C2.33382 5.31662 5.31715 2.33329 9.00049 2.33329C12.6838 2.33329 15.6672 5.31662 15.6672 8.99996C15.6672 12.6833 12.6838 15.6666 9.00049 15.6666ZM8.16699 4.83329H9.41699V9.20829L13.167 11.4333L12.542 12.4583L8.16699 9.83329V4.83329Z" fill="#4F4F4F"/>
</svg>
